<svg width="652" height="121" viewBox="0 0 652 121" fill="none" xmlns="http://www.w3.org/2000/svg">
<path d="M4 1.78125H648C649.657 1.78125 651 3.1244 651 4.78125V116.781C651 118.438 649.657 119.781 648 119.781H4.00001C2.34315 119.781 1 118.438 1 116.781V4.78125C1 3.1244 2.34315 1.78125 4 1.78125Z" stroke="#2E53D2" stroke-width="2"/>
<path d="M197.861 54.8184C197.282 54.8184 196.768 54.9323 196.318 55.1602C195.876 55.3815 195.501 55.7038 195.195 56.127C194.896 56.5501 194.668 57.0612 194.512 57.6602C194.355 58.2591 194.277 58.9329 194.277 59.6816C194.277 60.6908 194.401 61.5534 194.648 62.2695C194.902 62.9792 195.293 63.5228 195.82 63.9004C196.348 64.2715 197.028 64.457 197.861 64.457C198.441 64.457 199.02 64.3919 199.6 64.2617C200.186 64.1315 200.82 63.946 201.504 63.7051V66.2441C200.872 66.5046 200.251 66.6901 199.639 66.8008C199.027 66.918 198.34 66.9766 197.578 66.9766C196.107 66.9766 194.896 66.6738 193.945 66.0684C193.001 65.4564 192.301 64.6035 191.846 63.5098C191.39 62.4095 191.162 61.127 191.162 59.6621C191.162 58.5814 191.309 57.5918 191.602 56.6934C191.895 55.7949 192.324 55.0169 192.891 54.3594C193.457 53.7018 194.157 53.194 194.99 52.8359C195.824 52.4779 196.781 52.2988 197.861 52.2988C198.571 52.2988 199.281 52.39 199.99 52.5723C200.706 52.748 201.39 52.9922 202.041 53.3047L201.064 55.7656C200.531 55.5117 199.993 55.2904 199.453 55.1016C198.913 54.9128 198.382 54.8184 197.861 54.8184ZM212.979 62.8164C212.979 63.6628 212.773 64.3984 212.363 65.0234C211.953 65.6484 211.354 66.1302 210.566 66.4688C209.785 66.8073 208.835 66.9766 207.715 66.9766C207.22 66.9766 206.735 66.944 206.26 66.8789C205.791 66.8138 205.339 66.7194 204.902 66.5957C204.473 66.4655 204.062 66.306 203.672 66.1172V63.3047C204.349 63.6042 205.052 63.8743 205.781 64.1152C206.51 64.3561 207.233 64.4766 207.949 64.4766C208.444 64.4766 208.841 64.4115 209.141 64.2812C209.447 64.151 209.668 63.972 209.805 63.7441C209.941 63.5163 210.01 63.2559 210.01 62.9629C210.01 62.6048 209.889 62.2988 209.648 62.0449C209.408 61.791 209.076 61.5534 208.652 61.332C208.236 61.1107 207.764 60.873 207.236 60.6191C206.904 60.4629 206.543 60.2741 206.152 60.0527C205.762 59.8249 205.391 59.5482 205.039 59.2227C204.688 58.8971 204.398 58.5033 204.17 58.041C203.949 57.5723 203.838 57.0124 203.838 56.3613C203.838 55.5085 204.033 54.7793 204.424 54.1738C204.814 53.5684 205.371 53.1061 206.094 52.7871C206.823 52.4616 207.682 52.2988 208.672 52.2988C209.414 52.2988 210.12 52.3867 210.791 52.5625C211.468 52.7318 212.174 52.9792 212.91 53.3047L211.934 55.6582C211.276 55.3913 210.687 55.1862 210.166 55.043C209.645 54.8932 209.115 54.8184 208.574 54.8184C208.197 54.8184 207.874 54.8802 207.607 55.0039C207.34 55.1211 207.139 55.2904 207.002 55.5117C206.865 55.7266 206.797 55.9772 206.797 56.2637C206.797 56.6022 206.895 56.8887 207.09 57.123C207.292 57.3509 207.591 57.5723 207.988 57.7871C208.392 58.002 208.893 58.2526 209.492 58.5391C210.221 58.8841 210.843 59.2454 211.357 59.623C211.878 59.9941 212.279 60.4336 212.559 60.9414C212.839 61.4427 212.979 62.0677 212.979 62.8164ZM226.768 52.5039L221.914 66.7812H218.613L213.77 52.5039H216.826L219.512 61C219.557 61.1432 219.632 61.4134 219.736 61.8105C219.84 62.2012 219.945 62.6178 220.049 63.0605C220.16 63.4967 220.234 63.8581 220.273 64.1445C220.312 63.8581 220.381 63.4967 220.479 63.0605C220.583 62.6243 220.684 62.2109 220.781 61.8203C220.885 61.4232 220.96 61.1497 221.006 61L223.711 52.5039H226.768ZM236.748 66.7812H233.77V52.5039H241.953V54.9844H236.748V58.666H241.592V61.1367H236.748V66.7812ZM247.49 55.8633V66.7812H244.512V55.8633H247.49ZM246.006 51.5859C246.449 51.5859 246.829 51.6901 247.148 51.8984C247.467 52.1003 247.627 52.4811 247.627 53.041C247.627 53.5944 247.467 53.9785 247.148 54.1934C246.829 54.4017 246.449 54.5059 246.006 54.5059C245.557 54.5059 245.173 54.4017 244.854 54.1934C244.541 53.9785 244.385 53.5944 244.385 53.041C244.385 52.4811 244.541 52.1003 244.854 51.8984C245.173 51.6901 245.557 51.5859 246.006 51.5859ZM253.604 66.7812H250.625V51.5859H253.604V66.7812ZM261.24 55.6582C262.249 55.6582 263.118 55.8535 263.848 56.2441C264.577 56.6283 265.14 57.1882 265.537 57.9238C265.934 58.6595 266.133 59.5579 266.133 60.6191V62.0645H259.092C259.124 62.9043 259.375 63.5651 259.844 64.0469C260.319 64.5221 260.977 64.7598 261.816 64.7598C262.513 64.7598 263.151 64.6882 263.73 64.5449C264.31 64.4017 264.906 64.1868 265.518 63.9004V66.2051C264.977 66.472 264.411 66.6673 263.818 66.791C263.232 66.9147 262.52 66.9766 261.68 66.9766C260.586 66.9766 259.616 66.7747 258.77 66.3711C257.93 65.9674 257.269 65.3522 256.787 64.5254C256.312 63.6986 256.074 62.6569 256.074 61.4004C256.074 60.1243 256.289 59.0632 256.719 58.2168C257.155 57.3639 257.76 56.7259 258.535 56.3027C259.31 55.873 260.212 55.6582 261.24 55.6582ZM261.26 57.7773C260.68 57.7773 260.199 57.9629 259.814 58.334C259.437 58.7051 259.219 59.2878 259.16 60.082H263.34C263.333 59.6393 263.252 59.2454 263.096 58.9004C262.946 58.5553 262.718 58.2819 262.412 58.0801C262.113 57.8783 261.729 57.7773 261.26 57.7773ZM275.254 69.9453H266.953V68.5781H275.254V69.9453ZM288.857 59.5059C288.857 61.1139 288.548 62.4583 287.93 63.5391C287.318 64.6133 286.429 65.4238 285.264 65.9707C284.098 66.5111 282.695 66.7812 281.055 66.7812H277.012V52.5039H281.494C282.992 52.5039 284.29 52.7708 285.391 53.3047C286.491 53.832 287.344 54.6165 287.949 55.6582C288.555 56.6934 288.857 57.9759 288.857 59.5059ZM285.713 59.584C285.713 58.5293 285.557 57.6634 285.244 56.9863C284.938 56.3027 284.482 55.7982 283.877 55.4727C283.278 55.1471 282.536 54.9844 281.65 54.9844H280.039V64.2812H281.338C282.816 64.2812 283.913 63.8874 284.629 63.0996C285.352 62.3118 285.713 61.14 285.713 59.584ZM296.055 55.6387C297.52 55.6387 298.643 55.9577 299.424 56.5957C300.205 57.2337 300.596 58.2038 300.596 59.5059V66.7812H298.516L297.939 65.2969H297.861C297.549 65.6875 297.23 66.0065 296.904 66.2539C296.579 66.5013 296.204 66.6836 295.781 66.8008C295.358 66.918 294.844 66.9766 294.238 66.9766C293.594 66.9766 293.014 66.8529 292.5 66.6055C291.992 66.3581 291.592 65.9805 291.299 65.4727C291.006 64.9583 290.859 64.3073 290.859 63.5195C290.859 62.3607 291.266 61.5078 292.08 60.9609C292.894 60.4076 294.115 60.1016 295.742 60.043L297.637 59.9844V59.5059C297.637 58.9329 297.487 58.513 297.188 58.2461C296.888 57.9792 296.471 57.8457 295.938 57.8457C295.41 57.8457 294.893 57.9206 294.385 58.0703C293.877 58.2201 293.369 58.4089 292.861 58.6367L291.875 56.625C292.454 56.319 293.102 56.0781 293.818 55.9023C294.541 55.7266 295.286 55.6387 296.055 55.6387ZM297.637 61.7227L296.484 61.7617C295.521 61.7878 294.85 61.9603 294.473 62.2793C294.102 62.5983 293.916 63.0182 293.916 63.5391C293.916 63.9948 294.049 64.3203 294.316 64.5156C294.583 64.7044 294.932 64.7988 295.361 64.7988C295.999 64.7988 296.536 64.61 296.973 64.2324C297.415 63.8548 297.637 63.3177 297.637 62.6211V61.7227ZM308.271 64.6035C308.597 64.6035 308.913 64.571 309.219 64.5059C309.531 64.4408 309.84 64.3594 310.146 64.2617V66.4785C309.827 66.6217 309.43 66.7389 308.955 66.8301C308.486 66.9277 307.972 66.9766 307.412 66.9766C306.761 66.9766 306.175 66.8724 305.654 66.6641C305.14 66.4492 304.733 66.0814 304.434 65.5605C304.141 65.0332 303.994 64.3008 303.994 63.3633V58.0996H302.568V56.8398L304.209 55.8438L305.068 53.5391H306.973V55.8633H310.029V58.0996H306.973V63.3633C306.973 63.7799 307.09 64.0924 307.324 64.3008C307.565 64.5026 307.881 64.6035 308.271 64.6035ZM316.836 55.6387C318.301 55.6387 319.424 55.9577 320.205 56.5957C320.986 57.2337 321.377 58.2038 321.377 59.5059V66.7812H319.297L318.721 65.2969H318.643C318.33 65.6875 318.011 66.0065 317.686 66.2539C317.36 66.5013 316.986 66.6836 316.562 66.8008C316.139 66.918 315.625 66.9766 315.02 66.9766C314.375 66.9766 313.796 66.8529 313.281 66.6055C312.773 66.3581 312.373 65.9805 312.08 65.4727C311.787 64.9583 311.641 64.3073 311.641 63.5195C311.641 62.3607 312.048 61.5078 312.861 60.9609C313.675 60.4076 314.896 60.1016 316.523 60.043L318.418 59.9844V59.5059C318.418 58.9329 318.268 58.513 317.969 58.2461C317.669 57.9792 317.253 57.8457 316.719 57.8457C316.191 57.8457 315.674 57.9206 315.166 58.0703C314.658 58.2201 314.15 58.4089 313.643 58.6367L312.656 56.625C313.236 56.319 313.883 56.0781 314.6 55.9023C315.322 55.7266 316.068 55.6387 316.836 55.6387ZM318.418 61.7227L317.266 61.7617C316.302 61.7878 315.632 61.9603 315.254 62.2793C314.883 62.5983 314.697 63.0182 314.697 63.5391C314.697 63.9948 314.831 64.3203 315.098 64.5156C315.365 64.7044 315.713 64.7988 316.143 64.7988C316.781 64.7988 317.318 64.61 317.754 64.2324C318.197 63.8548 318.418 63.3177 318.418 62.6211V61.7227ZM331.152 69.9453H322.852V68.5781H331.152V69.9453ZM338.418 66.7812H335.391V55.0234H331.514V52.5039H342.295V55.0234H338.418V66.7812ZM348.76 55.6582C349.769 55.6582 350.638 55.8535 351.367 56.2441C352.096 56.6283 352.66 57.1882 353.057 57.9238C353.454 58.6595 353.652 59.5579 353.652 60.6191V62.0645H346.611C346.644 62.9043 346.895 63.5651 347.363 64.0469C347.839 64.5221 348.496 64.7598 349.336 64.7598C350.033 64.7598 350.671 64.6882 351.25 64.5449C351.829 64.4017 352.425 64.1868 353.037 63.9004V66.2051C352.497 66.472 351.93 66.6673 351.338 66.791C350.752 66.9147 350.039 66.9766 349.199 66.9766C348.105 66.9766 347.135 66.7747 346.289 66.3711C345.449 65.9674 344.788 65.3522 344.307 64.5254C343.831 63.6986 343.594 62.6569 343.594 61.4004C343.594 60.1243 343.809 59.0632 344.238 58.2168C344.674 57.3639 345.28 56.7259 346.055 56.3027C346.829 55.873 347.731 55.6582 348.76 55.6582ZM348.779 57.7773C348.2 57.7773 347.718 57.9629 347.334 58.334C346.956 58.7051 346.738 59.2878 346.68 60.082H350.859C350.853 59.6393 350.771 59.2454 350.615 58.9004C350.465 58.5553 350.238 58.2819 349.932 58.0801C349.632 57.8783 349.248 57.7773 348.779 57.7773ZM360.547 55.6387C362.012 55.6387 363.135 55.9577 363.916 56.5957C364.697 57.2337 365.088 58.2038 365.088 59.5059V66.7812H363.008L362.432 65.2969H362.354C362.041 65.6875 361.722 66.0065 361.396 66.2539C361.071 66.5013 360.697 66.6836 360.273 66.8008C359.85 66.918 359.336 66.9766 358.73 66.9766C358.086 66.9766 357.507 66.8529 356.992 66.6055C356.484 66.3581 356.084 65.9805 355.791 65.4727C355.498 64.9583 355.352 64.3073 355.352 63.5195C355.352 62.3607 355.758 61.5078 356.572 60.9609C357.386 60.4076 358.607 60.1016 360.234 60.043L362.129 59.9844V59.5059C362.129 58.9329 361.979 58.513 361.68 58.2461C361.38 57.9792 360.964 57.8457 360.43 57.8457C359.902 57.8457 359.385 57.9206 358.877 58.0703C358.369 58.2201 357.861 58.4089 357.354 58.6367L356.367 56.625C356.947 56.319 357.594 56.0781 358.311 55.9023C359.033 55.7266 359.779 55.6387 360.547 55.6387ZM362.129 61.7227L360.977 61.7617C360.013 61.7878 359.342 61.9603 358.965 62.2793C358.594 62.5983 358.408 63.0182 358.408 63.5391C358.408 63.9948 358.542 64.3203 358.809 64.5156C359.076 64.7044 359.424 64.7988 359.854 64.7988C360.492 64.7988 361.029 64.61 361.465 64.2324C361.908 63.8548 362.129 63.3177 362.129 62.6211V61.7227ZM380.986 55.6582C382.223 55.6582 383.158 55.9772 383.789 56.6152C384.427 57.2467 384.746 58.2624 384.746 59.6621V66.7812H381.758V60.4043C381.758 59.623 381.624 59.0339 381.357 58.6367C381.09 58.2396 380.677 58.041 380.117 58.041C379.329 58.041 378.77 58.3242 378.438 58.8906C378.105 59.4505 377.939 60.2546 377.939 61.3027V66.7812H374.961V60.4043C374.961 59.8835 374.902 59.4473 374.785 59.0957C374.668 58.7441 374.489 58.4805 374.248 58.3047C374.007 58.1289 373.698 58.041 373.32 58.041C372.767 58.041 372.331 58.181 372.012 58.4609C371.699 58.7344 371.475 59.1413 371.338 59.6816C371.208 60.2155 371.143 60.8698 371.143 61.6445V66.7812H368.164V55.8633H370.439L370.84 57.2598H371.006C371.227 56.8822 371.504 56.5762 371.836 56.3418C372.174 56.1074 372.546 55.9349 372.949 55.8242C373.353 55.7135 373.763 55.6582 374.18 55.6582C374.98 55.6582 375.658 55.7884 376.211 56.0488C376.771 56.3092 377.201 56.7129 377.5 57.2598H377.764C378.089 56.6999 378.548 56.293 379.141 56.0391C379.74 55.7852 380.355 55.6582 380.986 55.6582ZM402.549 63.8223H400.83V66.7812H397.881V63.8223H391.787V61.7227L398.047 52.5039H400.83V61.4785H402.549V63.8223ZM397.881 61.4785V59.0566C397.881 58.8288 397.884 58.5586 397.891 58.2461C397.904 57.9336 397.917 57.6211 397.93 57.3086C397.943 56.9961 397.956 56.7194 397.969 56.4785C397.988 56.2311 398.001 56.0586 398.008 55.9609H397.93C397.806 56.2279 397.676 56.4883 397.539 56.7422C397.402 56.9896 397.243 57.25 397.061 57.5234L394.443 61.4785H397.881ZM408.613 52.3184C409.434 52.3184 410.189 52.4453 410.879 52.6992C411.576 52.9531 412.132 53.3372 412.549 53.8516C412.965 54.3594 413.174 54.9974 413.174 55.7656C413.174 56.3385 413.06 56.8398 412.832 57.2695C412.611 57.6992 412.308 58.0768 411.924 58.4023C411.54 58.7214 411.104 59.0013 410.615 59.2422C411.123 59.5091 411.605 59.8216 412.061 60.1797C412.516 60.5312 412.887 60.9447 413.174 61.4199C413.467 61.8952 413.613 62.4486 413.613 63.0801C413.613 63.8743 413.402 64.5645 412.979 65.1504C412.555 65.7298 411.969 66.179 411.221 66.498C410.472 66.8171 409.603 66.9766 408.613 66.9766C407.546 66.9766 406.637 66.8236 405.889 66.5176C405.14 66.2116 404.57 65.7754 404.18 65.209C403.789 64.6361 403.594 63.9525 403.594 63.1582C403.594 62.5072 403.714 61.9408 403.955 61.459C404.202 60.9772 404.535 60.5638 404.951 60.2188C405.368 59.8672 405.827 59.5677 406.328 59.3203C405.905 59.0534 405.518 58.7507 405.166 58.4121C404.821 58.0736 404.544 57.6862 404.336 57.25C404.134 56.8138 404.033 56.3125 404.033 55.7461C404.033 54.9909 404.245 54.3594 404.668 53.8516C405.098 53.3438 405.661 52.9629 406.357 52.709C407.054 52.4486 407.806 52.3184 408.613 52.3184ZM406.387 62.9824C406.387 63.4967 406.569 63.9232 406.934 64.2617C407.305 64.5938 407.852 64.7598 408.574 64.7598C409.323 64.7598 409.883 64.6003 410.254 64.2812C410.625 63.9557 410.811 63.5293 410.811 63.002C410.811 62.6374 410.703 62.3184 410.488 62.0449C410.28 61.7715 410.016 61.5273 409.697 61.3125C409.378 61.0911 409.056 60.8861 408.73 60.6973L408.467 60.5605C408.05 60.7493 407.686 60.9609 407.373 61.1953C407.067 61.4297 406.826 61.6934 406.65 61.9863C406.475 62.2793 406.387 62.6113 406.387 62.9824ZM408.594 54.5254C408.099 54.5254 407.689 54.6523 407.363 54.9062C407.038 55.1602 406.875 55.5182 406.875 55.9805C406.875 56.306 406.953 56.5924 407.109 56.8398C407.272 57.0807 407.484 57.2923 407.744 57.4746C408.011 57.6569 408.301 57.8262 408.613 57.9824C408.913 57.8392 409.193 57.6797 409.453 57.5039C409.714 57.3281 409.925 57.1165 410.088 56.8691C410.251 56.6217 410.332 56.3255 410.332 55.9805C410.332 55.5182 410.166 55.1602 409.834 54.9062C409.508 54.6523 409.095 54.5254 408.594 54.5254ZM422.598 69.9453H414.297V68.5781H422.598V69.9453ZM431.719 66.7812H423.096V65.0234L428.154 58.1387H423.398V55.8633H431.543V57.7969L426.621 64.5059H431.719V66.7812ZM443.906 55.8633V66.7812H441.621L441.221 65.3848H441.064C440.83 65.7559 440.537 66.0586 440.186 66.293C439.834 66.5273 439.447 66.6999 439.023 66.8105C438.6 66.9212 438.161 66.9766 437.705 66.9766C436.924 66.9766 436.243 66.8398 435.664 66.5664C435.085 66.2865 434.632 65.8535 434.307 65.2676C433.988 64.6816 433.828 63.9199 433.828 62.9824V55.8633H436.807V62.2402C436.807 63.0215 436.947 63.6107 437.227 64.0078C437.507 64.4049 437.952 64.6035 438.564 64.6035C439.17 64.6035 439.645 64.4668 439.99 64.1934C440.335 63.9134 440.576 63.5065 440.713 62.9727C440.856 62.4323 440.928 61.7747 440.928 61V55.8633H443.906ZM453.125 55.6582C453.275 55.6582 453.447 55.668 453.643 55.6875C453.844 55.7005 454.007 55.7201 454.131 55.7461L453.906 58.5391C453.809 58.5065 453.669 58.4837 453.486 58.4707C453.311 58.4512 453.158 58.4414 453.027 58.4414C452.643 58.4414 452.269 58.4902 451.904 58.5879C451.546 58.6855 451.224 58.8451 450.938 59.0664C450.651 59.2812 450.423 59.5677 450.254 59.9258C450.091 60.2773 450.01 60.7103 450.01 61.2246V66.7812H447.031V55.8633H449.287L449.727 57.6992H449.873C450.088 57.3281 450.355 56.9896 450.674 56.6836C450.999 56.3711 451.367 56.1237 451.777 55.9414C452.194 55.7526 452.643 55.6582 453.125 55.6582ZM459.092 55.8633V66.7812H456.113V55.8633H459.092ZM457.607 51.5859C458.05 51.5859 458.431 51.6901 458.75 51.8984C459.069 52.1003 459.229 52.4811 459.229 53.041C459.229 53.5944 459.069 53.9785 458.75 54.1934C458.431 54.4017 458.05 54.5059 457.607 54.5059C457.158 54.5059 456.774 54.4017 456.455 54.1934C456.143 53.9785 455.986 53.5944 455.986 53.041C455.986 52.4811 456.143 52.1003 456.455 51.8984C456.774 51.6901 457.158 51.5859 457.607 51.5859Z" fill="#2E53D2"/>
<path d="M601.473 60.5081C601.473 82.4573 583.68 100.251 561.731 100.251C539.782 100.251 521.988 82.4573 521.988 60.5081C521.988 38.5589 539.782 20.7656 561.731 20.7656C583.68 20.7656 601.473 38.5589 601.473 60.5081ZM533.911 60.5081C533.911 75.8725 546.366 88.3278 561.731 88.3278C577.095 88.3278 589.55 75.8725 589.55 60.5081C589.55 45.1437 577.095 32.6884 561.731 32.6884C546.366 32.6884 533.911 45.1437 533.911 60.5081Z" fill="#D9D9D9"/>
<path d="M559.674 21.1097C551.296 21.6008 543.288 24.7318 536.799 30.0538C530.309 35.3759 525.671 42.6157 523.549 50.7358C521.427 58.8559 521.93 67.4394 524.986 75.2559C528.042 83.0725 533.495 89.7209 540.561 94.2483L546.993 84.209C542.046 81.0399 538.23 76.386 536.09 70.9144C533.951 65.4428 533.599 59.4344 535.084 53.7503C536.57 48.0662 539.816 42.9983 544.359 39.2729C548.902 35.5475 554.507 33.3558 560.372 33.012L559.674 21.1097Z" fill="#2E53D2"/>
</svg>
