<svg width="33" height="39" viewBox="0 0 33 39" fill="none" xmlns="http://www.w3.org/2000/svg">
<path fill-rule="evenodd" clip-rule="evenodd" d="M25.0797 36.9254C22.7421 37.6857 20.2473 38.0967 17.6572 38.0967C15.0653 38.0967 12.569 37.6851 10.23 36.9239C11.3105 37.0534 11.7097 36.3499 11.7097 35.7425C11.7097 35.4781 11.7052 35.0117 11.6991 34.3878C11.6922 33.6659 11.6831 32.7331 11.6767 31.6582C5.00017 33.1096 3.59166 28.4385 3.59166 28.4385C2.50116 25.6647 0.927665 24.9261 0.927665 24.9261C-1.25184 23.4355 1.09266 23.4657 1.09266 23.4657C3.50016 23.6354 4.76766 25.9409 4.76766 25.9409C6.90966 29.6111 10.3852 28.5514 11.7532 27.9358C11.9707 26.3838 12.5917 25.3253 13.2772 24.725C7.94767 24.1187 2.34516 22.0592 2.34516 12.8564C2.34516 10.234 3.27966 8.09074 4.81566 6.41094C4.56816 5.80324 3.74466 3.36244 5.04966 0.0556191C5.04966 0.0556191 7.06566 -0.589901 11.6497 2.51734C13.5652 1.98434 15.6172 1.71894 17.6587 1.70814C19.6972 1.71854 21.7507 1.98434 23.6677 2.51734C28.2487 -0.589901 30.2602 0.0556191 30.2602 0.0556191C31.5697 3.36244 30.7462 5.80324 30.4987 6.41094C32.0377 8.09074 32.9662 10.234 32.9662 12.8564C32.9662 22.0816 27.3547 24.1128 22.0087 24.7071C22.8697 25.4486 23.6377 26.9135 23.6377 29.1547C23.6377 31.3016 23.6243 33.1706 23.6154 34.4092C23.611 35.0228 23.6077 35.4817 23.6077 35.7429C23.6077 36.3531 23.9973 37.058 25.0797 36.9254Z" fill="black"/>
</svg>
